<?xml version="1.0" encoding="utf-8"?>
<!-- Generator: Adobe Illustrator 23.0.0, SVG Export Plug-In . SVG Version: 6.00 Build 0)  -->
<svg version="1.1" id="Layer_1" xmlns="http://www.w3.org/2000/svg" xmlns:xlink="http://www.w3.org/1999/xlink" x="0px" y="0px"
	 viewBox="0 0 800 1000" style="enable-background:new 0 0 800 1000;" xml:space="preserve">
<style type="text/css">
	.st0{fill:#FFFFFF;stroke:#000000;stroke-width:0.25;stroke-miterlimit:10;}
	.st1{fill:#FFFFFF;stroke:#000000;stroke-miterlimit:10;}
</style>
<title>Custom Preset</title>
<desc>Created with Sketch.</desc>
<g>
	<g id="Layer_1-2">
		<path class="st0" d="M273,520.9c-2.4,1.6-5.4,2.5-8.4,2.4c-4.5,0-8.1-2-10.7-6.1c-2.6-4-3.9-9.4-3.9-16c0-7.1,1.5-12.9,4.4-17.3
			c2.9-4.4,6.7-6.6,11.3-6.6c2.6-0.1,5.1,0.5,7.3,1.6v9.6c-1.7-1.7-4.2-2.6-6.7-2.7c-2.8,0-5,1.3-6.7,3.9c-1.7,2.6-2.6,6.2-2.5,10.7
			c0,4.3,0.8,7.7,2.4,10.3s3.8,3.8,6.5,3.8c2.7,0,5.3-1.1,7.1-2.8V520.9z"/>
		<path class="st0" d="M292.3,523.3c-4.2,0-7.7-2.1-10.3-6.2s-4-9.5-4-16.2c0-7.1,1.3-12.7,4-17.1s6.3-6.5,10.7-6.5
			c4.2,0,7.6,2.1,10.2,6.2c2.6,4.2,3.9,9.6,3.9,16.4c0,7-1.3,12.6-4,16.9C300.2,521.1,296.7,523.3,292.3,523.3z M292.6,486
			c-2.3,0-4.2,1.3-5.5,3.9c-1.5,3.3-2.2,6.9-2.1,10.4c0,4.4,0.7,7.9,2.1,10.4s3.2,3.8,5.4,3.8c2.3,0,4.1-1.2,5.4-3.7
			c1.3-2.5,2-5.9,2-10.4c0-4.6-0.7-8.2-2-10.7C296.6,487.3,294.9,486,292.6,486z"/>
		<path class="st0" d="M347.1,522H340v-26.5c0-2.9,0.1-6,0.2-9.5l0,0c-0.3,2.7-0.6,4.7-0.9,5.9l-6.9,30.1h-5.5l-7-29.8
			c-0.2-0.8-0.5-2.9-0.9-6.2h-0.3c0.2,4.4,0.3,8.2,0.3,11.5V522h-6v-44h9.8l6.1,26.6c0.5,2.1,0.8,4.3,1.1,6.4h0.1
			c0.4-2.5,0.8-4.6,1.2-6.5l6.1-26.5h9.7L347.1,522z"/>
		<path class="st0" d="M373,522h-18v-44h17v8h-10v10h9v8h-10v11h12V522z"/>
		<path class="st0" d="M413,520.9c-2.4,1.6-5.4,2.5-8.4,2.4c-4.5,0-8.1-2-10.7-6.1c-2.6-4-3.9-9.4-3.9-16c0-7.1,1.5-12.9,4.4-17.3
			c2.9-4.4,6.7-6.6,11.3-6.6c2.6-0.1,5.1,0.5,7.3,1.6v9.6c-1.7-1.7-4.2-2.6-6.7-2.7c-2.8,0-5,1.3-6.7,3.9c-1.7,2.6-2.6,6.2-2.5,10.7
			c0,4.3,0.8,7.7,2.4,10.3s3.8,3.8,6.5,3.8c2.7,0,5.3-1.1,7.1-2.8V520.9z"/>
		<path class="st0" d="M437,522h-18v-44h7v37h11V522z"/>
		<path class="st0" d="M455.1,523.3c-4.2,0-7.7-2.1-10.3-6.2c-2.6-4.1-4-9.5-4-16.2c0-7,1.4-12.7,4.1-17c2.7-4.3,6.3-6.5,10.7-6.5
			c4.2,0,7.6,2.1,10.2,6.2c2.6,4.2,3.9,9.6,3.9,16.4c0,7-1.3,12.6-4,16.9C463,521.2,459.5,523.3,455.1,523.3z M455.4,486
			c-2.3,0-4.2,1.3-5.5,3.9c-1.5,3.3-2.2,6.9-2.1,10.4c0,4.4,0.7,7.9,2.1,10.4s3.2,3.8,5.4,3.8c2.3,0,4.1-1.2,5.5-3.7
			c1.4-2.5,2-5.9,2-10.4c0-4.6-0.7-8.2-2-10.7C459.4,487.3,457.7,486,455.4,486z"/>
		<path class="st0" d="M475,521v-10c1,1.4,2.3,2.5,3.9,3.4c1.3,0.7,2.8,1.2,4.3,1.2c0.8,0,1.5-0.1,2.2-0.3c1.2-0.4,2.1-1.3,2.5-2.4
			c0.2-0.6,0.3-1.2,0.3-1.8c0-0.8-0.2-1.6-0.5-2.4c-0.3-0.7-0.8-1.3-1.4-1.9c-0.6-0.6-1.3-1.2-2-1.7c-0.8-0.5-1.6-1.1-2.6-1.7
			c-2.2-1.4-4-3.2-5.2-5.4c-1.2-2.4-1.8-5-1.7-7.6c0-2,0.3-4.1,0.9-6c0.5-1.5,1.4-2.9,2.5-4.1c1-1,2.3-1.9,3.7-2.4
			c1.4-0.5,3-0.8,4.5-0.8c1.4,0,2.8,0.1,4.1,0.4c1.2,0.3,2.3,0.7,3.3,1.3v9.3c-0.9-1-2.1-1.8-3.4-2.4c-0.6-0.3-1.2-0.5-1.9-0.6
			c-0.6-0.1-1.2-0.2-1.8-0.2c-0.7,0-1.4,0.1-2.1,0.3c-0.6,0.2-1.1,0.5-1.6,0.9c-0.4,0.4-0.8,0.9-1,1.4c-0.2,0.6-0.4,1.2-0.4,1.9
			c0,0.7,0.1,1.4,0.4,2c0.3,0.6,0.7,1.2,1.2,1.7c0.5,0.6,1.1,1.1,1.8,1.6c0.7,0.5,1.5,1,2.3,1.6c1.1,0.7,2.2,1.5,3.2,2.4
			c1,0.8,1.8,1.8,2.4,2.9c0.7,1.1,1.2,2.4,1.6,3.6c0.4,1.6,0.6,3.2,0.5,4.8c0.1,2.1-0.3,4.3-0.9,6.3c-0.5,1.5-1.4,2.9-2.6,4.1
			c-1,1-2.3,1.8-3.8,2.2c-1.5,0.5-3,0.7-4.6,0.7c-1.6,0-3.2-0.2-4.7-0.6C477.4,522.5,476.1,521.9,475,521z"/>
		<path class="st0" d="M519,522h-18v-44h17v8h-10v10h10v8h-10v11h11V522z"/>
		<path class="st0" d="M550.3,522h-7.9l-4.6-11.4c-0.4-0.9-0.7-1.6-1-2.3c-0.3-0.6-0.6-1.2-1-1.8c-0.3-0.4-0.6-0.8-1-1.1
			c-0.3-0.2-0.7-0.4-1.1-0.4H532v17h-7v-44h10.8c7.3,0,11,4,11,12c0,1.4-0.2,2.9-0.5,4.3c-0.3,1.2-0.8,2.4-1.4,3.5
			c-0.5,1-1.3,1.9-2.1,2.7c-0.8,0.7-1.7,1.3-2.8,1.8v0.1c0.5,0.2,1,0.6,1.3,1c0.4,0.5,0.8,1,1.2,1.6c0.4,0.6,0.8,1.3,1.2,2
			c0.4,0.7,0.7,1.4,1,2.1L550.3,522z M532,486v12h2.8c1.4,0,2.7-0.7,3.4-1.8c0.9-1.4,1.3-2.9,1.2-4.5c0-3.8-1.5-5.7-4.5-5.7L532,486
			z"/>
	</g>
</g>
<path class="st1" d="M263.7,448.9h-3.9c-5.3,0-9.6-4.3-9.6-9.6v-17c0-5.3,4.3-9.6,9.6-9.6h3.9c5.3,0,9.6,4.3,9.6,9.6v17
	C273.4,444.6,269,448.9,263.7,448.9z"/>
<path class="st1" d="M293,448.9h4.1c5.5,0,9.9-4.5,9.9-9.9v-16.6c0-5.5-4.5-9.9-9.9-9.9H293c-5.5,0-9.9,4.5-9.9,9.9V439
	C283.1,444.4,287.5,448.9,293,448.9z"/>
<path class="st1" d="M325.4,448.9h12.4c6.6,0,12-5.4,12-12v-12.4c0-6.6-5.4-12-12-12h-12.4c-6.6,0-12,5.4-12,12v12.4
	C313.4,443.5,318.8,448.9,325.4,448.9z"/>
<path class="st1" d="M365.6,448.9h-3c-4.1,0-7.4-3.3-7.4-7.4V420c0-4.1,3.3-7.4,7.4-7.4h3c4.1,0,7.4,3.3,7.4,7.4v21.5
	C372.9,445.6,369.6,448.9,365.6,448.9z"/>
<path class="st1" d="M403.9,448.9h-4c-5.3,0-9.7-4.3-9.7-9.7v-16.9c0-5.3,4.3-9.7,9.7-9.7h4c5.3,0,9.7,4.3,9.7,9.7v16.9
	C413.5,444.6,409.2,448.9,403.9,448.9z"/>
<path class="st1" d="M430.1,451.8h-3c-4,0-7.2-3.3-7.2-7.2v-24.7c0-4,3.3-7.2,7.2-7.2h3c4,0,7.2,3.3,7.2,7.2v24.7
	C437.3,448.5,434,451.8,430.1,451.8z"/>
<path class="st1" d="M453.1,451.8h4.9c6.6,0,12-5.4,12-12v-15.1c0-6.6-5.4-12-12-12h-4.9c-6.6,0-12,5.4-12,12v15.1
	C441.1,446.4,446.5,451.8,453.1,451.8z"/>
<path class="st1" d="M482.9,451.8h3.2c4.3,0,7.9-3.5,7.9-7.9v-23.4c0-4.3-3.5-7.9-7.9-7.9h-3.2c-4.3,0-7.9,3.5-7.9,7.9v23.4
	C475.1,448.3,478.6,451.8,482.9,451.8z"/>
<path class="st1" d="M509,451.8h3c4.1,0,7.4-3.3,7.4-7.4V420c0-4.1-3.3-7.4-7.4-7.4h-3c-4.1,0-7.4,3.3-7.4,7.4v24.4
	C501.7,448.5,505,451.8,509,451.8z"/>
<path class="st1" d="M540,451.8h-4.2c-5.7,0-10.3-4.7-10.3-10.3V423c0-5.7,4.7-10.3,10.3-10.3h4.2c5.7,0,10.3,4.7,10.3,10.3v18.5
	C550.3,447.1,545.7,451.8,540,451.8z"/>
</svg>
