<?xml version="1.0" encoding="utf-8"?>
<!-- Generator: Adobe Illustrator 23.0.0, SVG Export Plug-In . SVG Version: 6.00 Build 0)  -->
<svg version="1.1" id="Layer_1" xmlns="http://www.w3.org/2000/svg" xmlns:xlink="http://www.w3.org/1999/xlink" x="0px" y="0px"
	 viewBox="0 0 1600 1200" style="enable-background:new 0 0 1600 1200;" xml:space="preserve">
<style type="text/css">
	.st0{fill:#FFFFFF;}
</style>
<title>Custom Preset</title>
<desc>Created with Sketch.</desc>
<g>
	<g id="Layer_1-2">
		<path class="st0" d="M378,666c-7.8,5.1-17.1,7.7-28.7,7.7c-15.1,0-26.9-6.5-35.5-19.6c-8.6-13.1-12.9-30.6-12.9-52.4
			c0-23.2,4.8-42,14.5-56.5c9.7-14.4,22.3-21.7,37.8-21.7c9.6,0,17.7,1.8,23.8,5.4v31.5c-6.2-5.8-13.7-8.7-22.1-8.7
			c-9.2,0-16.7,4.3-22.3,12.9c-5.7,8.6-8.5,20.2-8.5,34.8c0,14,2.7,25.2,8,33.6s12.5,12.5,21.6,12.5c8.6,0,16.5-3.1,24.3-9.3V666z"
			/>
		<path class="st0" d="M441.2,673.7c-14.1,0-25.5-6.8-34.4-20.3c-8.9-13.5-13.3-31.2-13.3-52.9c0-23,4.5-41.5,13.5-55.7
			c9-14.2,20.9-21.3,35.7-21.3c14,0,25.3,6.8,34,20.4s13,31.5,13,53.7c0,22.8-4.5,41.2-13.5,55.2S455.6,673.7,441.2,673.7z
			 M442.1,551.7c-7.8,0-13.9,4.3-18.5,12.9c-4.6,8.6-6.8,20-6.8,34.2c0,14.4,2.3,25.7,6.8,34.1s10.5,12.6,17.9,12.6
			c7.6,0,13.7-4.1,18.2-12.2c4.5-8.1,6.7-19.4,6.7-33.9c0-15.1-2.2-26.8-6.5-35.1S449.7,551.7,442.1,551.7z"/>
		<path class="st0" d="M623,671h-22v-86.9c0-9.4,0.3-19.8,0.8-31.1h-0.2c-1.1,8.9-2.2,15.3-3.1,19.3L575.5,671h-18.1l-23.5-97.7
			c-0.6-2.6-1.7-9.4-3.1-20.3h-0.6c0.6,14.3,0.9,26.9,0.9,37.7V671h-20V526h32.4l20.1,86.2c1.6,6.9,2.8,13.8,3.5,20.8h0.4
			c1.2-8,2.5-15,3.9-21l20-86H623L623,671z"/>
		<path class="st0" d="M709,671h-59V526h56v27h-34v32h32v26h-32v34h37L709,671z"/>
		<path class="st0" d="M844,666c-8,5.1-17.3,7.7-28.9,7.7c-15.1,0-26.9-6.5-35.5-19.6c-8.6-13.1-12.9-30.6-12.9-52.4
			c0-23.2,4.9-42,14.6-56.5c9.7-14.4,22.3-21.7,37.8-21.7c9.6,0,17.7,1.8,24,5.4v31.5c-6.4-5.8-13.8-8.7-22.2-8.7
			c-9.2,0-16.7,4.3-22.3,12.9c-5.7,8.6-8.5,20.2-8.5,34.8c0,14,2.7,25.2,8,33.6s12.5,12.5,21.6,12.5c8.6,0,16.5-3.1,24.5-9.3V666z"
			/>
		<path class="st0" d="M923,671h-58V526h22v119h36V671z"/>
		<path class="st0" d="M983.4,673.7c-14.1,0-25.5-6.8-34.4-20.3s-13.3-31.2-13.3-52.9c0-23,4.5-41.5,13.5-55.7
			c9-14.2,20.9-21.3,35.7-21.3c14,0,25.3,6.8,34,20.4s13,31.5,13,53.7c0,22.8-4.5,41.2-13.5,55.2S997.8,673.7,983.4,673.7z
			 M984.3,551.7c-7.8,0-13.9,4.3-18.5,12.9c-4.6,8.6-6.8,20-6.8,34.2c0,14.4,2.3,25.7,6.8,34.1s10.5,12.6,17.9,12.6
			c7.6,0,13.7-4.1,18.1-12.2s6.7-19.4,6.7-33.9c0-15.1-2.2-26.8-6.5-35.1S991.9,551.7,984.3,551.7z"/>
		<path class="st0" d="M1049,666v-32.6c3.4,4.5,7.8,8.3,13,11.2c4.2,2.4,9.2,3.7,14.2,3.7c2.5,0,5-0.3,7.3-1.1
			c4-1.4,7.1-4.2,8.4-7.8c0.7-1.9,1.1-3.9,1-5.9c0-2.6-0.5-5.2-1.7-7.6c-1.1-2.3-2.7-4.4-4.6-6.2c-2.1-2-4.4-3.9-6.8-5.5
			c-2.6-1.8-5.4-3.6-8.5-5.4c-7.3-4.4-13.2-10.4-17.1-17.4c-3.8-6.9-5.7-15.1-5.7-24.9c-0.2-6.7,0.9-13.3,3.1-19.7
			c1.7-4.9,4.6-9.5,8.4-13.5c3.4-3.4,7.6-6.1,12.4-7.8c4.7-1.7,9.7-2.5,14.8-2.5c4.6-0.1,9.2,0.4,13.7,1.4c3.9,0.9,7.6,2.3,11,4.2
			v30.5c-1.6-1.7-3.4-3.2-5.4-4.5c-1.9-1.2-3.9-2.3-6-3.2c-2-0.8-4-1.5-6.2-1.9c-1.9-0.4-3.9-0.6-5.8-0.6c-2.4,0-4.7,0.3-6.9,1.1
			c-2,0.7-3.8,1.7-5.2,3c-1.5,1.3-2.6,2.9-3.3,4.6c-0.8,1.9-1.2,4-1.1,6.1c0,2.2,0.4,4.5,1.3,6.6c0.9,2,2.2,3.9,3.8,5.5
			c1.8,1.9,3.7,3.6,5.9,5.1c2.3,1.7,4.9,3.4,7.8,5.1c3.8,2.3,7.4,4.9,10.6,7.8c3.2,2.8,5.9,5.9,8.1,9.3c2.4,3.7,4.1,7.7,5.2,11.9
			c1.3,5.1,1.9,10.3,1.8,15.5c0,8.1-1,15-3.1,20.5c-1.7,5-4.6,9.5-8.5,13.4c-3.4,3.3-7.7,5.9-12.5,7.4c-4.8,1.5-9.9,2.3-15.1,2.2
			c-5.2,0-10.5-0.7-15.5-2C1057,670.9,1052.7,668.8,1049,666z"/>
		<path class="st0" d="M1196,671h-59V526h56v27h-34v32h32v26h-32v34h37V671z"/>
		<path class="st0" d="M1298.8,671h-25.7l-15.4-37.6c-1.1-2.9-2.3-5.4-3.3-7.6c-0.9-2-2-3.9-3.2-5.8c-0.9-1.4-2-2.6-3.4-3.7
			c-1.1-0.8-2.4-1.3-3.8-1.3h-6v56h-22V526h35.3c24,0,35.9,13.1,35.9,39.4c0,4.7-0.5,9.4-1.6,14c-0.9,4-2.5,7.9-4.5,11.6
			c-1.8,3.3-4.1,6.3-7,8.9c-2.6,2.4-5.7,4.4-9.1,5.9v0.4c1.7,0.8,3.1,1.9,4.3,3.3c1.5,1.7,2.8,3.5,4,5.3c1.3,2,2.5,4.2,3.7,6.5
			c1.2,2.3,2.3,4.6,3.2,6.8L1298.8,671z M1238,550v40h9.5c4.7,0,8.5-2,11.3-6c2.9-4,4.3-9.1,4.3-15.1c0-12.6-5.1-18.8-15.3-18.8
			L1238,550z"/>
	</g>
</g>
</svg>
